<?xml version="1.0" standalone="no"?>
<!DOCTYPE svg PUBLIC "-//W3C//DTD SVG 20010904//EN"
 "http://www.w3.org/TR/2001/REC-SVG-20010904/DTD/svg10.dtd">
<svg version="1.0" xmlns="http://www.w3.org/2000/svg"
 width="109.000000pt" height="81.000000pt" viewBox="0 0 109.000000 81.000000"
 preserveAspectRatio="xMidYMid meet">
<metadata>
Created by potrace 1.11, written by Peter Selinger 2001-2013
</metadata>
<g transform="translate(0.000000,81.000000) scale(0.100000,-0.100000)"
fill="#000000" stroke="none">
<path d="M299 793 c-127 -32 -243 -142 -281 -266 -58 -192 30 -392 211 -479
60 -30 75 -32 161 -33 81 0 104 4 158 27 l62 27 0 -30 0 -29 93 0 94 0 -2 38
-2 39 42 -24 c47 -26 137 -41 205 -33 l45 5 1 82 1 83 -52 0 c-28 0 -72 7 -98
16 -47 16 -132 88 -123 103 3 5 61 9 128 9 68 0 128 1 134 1 15 1 15 171 0
172 -6 1 -68 2 -138 3 -69 0 -130 5 -135 9 -4 5 -9 67 -9 138 -1 71 -2 135 -3
142 -1 9 -25 12 -88 12 l-88 0 -5 -35 c-3 -21 -8 -30 -13 -23 -13 21 -121 55
-183 57 -34 2 -86 -3 -115 -11z m198 -194 c42 -20 83 -62 83 -84 0 -6 -52 -10
-132 -10 l-133 0 0 -90 0 -89 138 1 c137 1 138 1 131 -20 -3 -12 -18 -34 -32
-49 -105 -112 -295 -66 -351 85 -37 97 34 236 136 267 51 15 115 11 160 -11z"/>
</g>
</svg>
