<svg xmlns="http://www.w3.org/2000/svg"><symbol viewBox="0 0 50 50" id="shape-boullet"><title>boullet</title> <circle cx="25" cy="25" r="24.8"/> </symbol><symbol viewBox="0 0 466.6 466.6" id="shape-location"><title>location</title> <path d="M233.3,0C148.2,0,79,69.2,79,154.3c0,34.3,21.9,90.2,66.9,170.8c31.8,57.1,63.2,104.6,64.5,106.6l22.9,34.8l22.9-34.8
	c1.3-2,32.6-49.6,64.5-106.6c45-80.7,66.9-136.6,66.9-170.8C387.6,69.2,318.4,0,233.3,0z M233.3,233.3c-44.2,0-80-35.8-80-80
	s35.8-80,80-80s80,35.8,80,80S277.5,233.3,233.3,233.3z"/> </symbol><symbol viewBox="26.1 18.6 17.9 12.8" id="shape-logo"><title>logo</title> <path d="M38.8,23.5v-4.6h-2.8v1c-0.9-0.6-2.1-1-3.3-1c-3.4,0-6.1,2.7-6.1,6.1s2.7,6.1,6.1,6.1c1.2,0,2.3-0.4,3.3-1v1h2.8v-1.2
	c1.2,1.1,3.8,1,4.5,0.8c0,0,0-2.5,0-2.5c-2.7,0.3-3.9-1.1-4.4-2h4.4v-2.7H38.8z M32.8,28.3c-1.8,0-3.3-1.5-3.3-3.3s1.5-3.3,3.3-3.3
	c1.3,0,2.4,0.7,2.9,1.8h-4.3v2.7h4.4C35.4,27.4,34.2,28.3,32.8,28.3z"/> </symbol><symbol viewBox="0 0 50 50" id="shape-mail"><title>mail</title> <path fill="#030104" d="M25,32.1l-6.2-5.4L1.1,41.9c0.6,0.6,1.5,1,2.5,1h42.8c1,0,1.8-0.4,2.5-1L31.2,26.7L25,32.1z M48.9,8.1
	c-0.6-0.6-1.5-1-2.5-1H3.6c-1,0-1.8,0.4-2.5,1L25,28.6L48.9,8.1z M0,10.3V40l17.3-14.7L0,10.3z M32.7,25.3L50,40V10.3L32.7,25.3z"/> </symbol><symbol viewBox="0 0 612 612" id="shape-next"><title>next</title> <path d="M587.6,186.9c-32.3-75.2-87.1-129.9-163-162.3C386.7,8.4,347,0.2,305.5,0.2s-80.9,8.2-118.8,24.4
	C111.5,56.9,56.4,111.5,24.1,186.9C7.9,224.6,0,264.2,0,305.7c0,41.5,7.9,81.4,24.1,119.1c32.3,75.3,87.4,130.3,162.6,162.6
	c37.9,16.2,77.3,24.4,118.8,24.4s81.2-8.3,119.1-24.4c75.9-32.4,130.7-87.4,163-162.6c16.2-37.9,24.4-77.6,24.4-119.1
	C612,264.2,603.8,224.8,587.6,186.9z M538.7,440.9c-24,41.2-56.9,73.9-98.4,98c-41.2,24-86.3,36.1-134.8,36.1
	c-36.5,0-71.3-7-104.4-21.4c-33.1-14.4-61.7-33.3-85.7-57.2c-23.9-23.9-43-52.8-57.2-86C44,377.3,37.1,342.1,37.1,305.7
	c0-48.5,11.9-93.4,35.8-134.5c24-41.2,56.9-73.9,98-98C212.1,49,257,37,305.5,37s93.6,12.1,134.8,36.1c41.5,24.2,74.3,56.9,98.4,98
	c24.1,41.2,36.1,86,36.1,134.5C574.9,354.2,562.9,399.4,538.7,440.9z M270,129c-7.6-7.8-19.4-7.4-26.1-0.7c-7.7,7.7-7.3,19-0.7,25.8
	l149.6,153.6L243.3,457.2c-7.2,7.2-6.7,19.1,0,25.8c3.7,3.7,8.4,5.7,13.7,5.7c5,0,9.4-2,13-5.7l162.3-161.6c7.2-7.2,6.6-19.3,0-26.1
	L270,129z"/> </symbol><symbol viewBox="0 0 50 50" id="shape-search"><title>search</title> <path d="M48.8,42.9L37.9,32c-0.1-0.1-0.1-0.1-0.2-0.2c2.1-3.2,3.4-7.1,3.4-11.3C41.1,9.2,31.9,0,20.6,0S0,9.2,0,20.6
	c0,11.4,9.2,20.6,20.6,20.6c4.2,0,8.1-1.2,11.3-3.4c0.1,0.1,0.1,0.1,0.2,0.2l10.9,10.9c1.6,1.6,4.3,1.6,5.9,0
	C50.4,47.1,50.4,44.5,48.8,42.9z M20.6,34c-7.4,0-13.4-6-13.4-13.4c0-7.4,6-13.4,13.4-13.4c7.4,0,13.4,6,13.4,13.4S28,34,20.6,34z"/> </symbol><symbol viewBox="0 0 50 50" id="shape-tel"><title>tel</title> <path fill="#010002" d="M50,39.5c0.1,0.8-0.1,1.5-0.7,2.1l-7,7c-0.3,0.4-0.7,0.7-1.2,0.9c-0.5,0.2-1,0.4-1.5,0.5c0,0-0.1,0-0.3,0
	c-0.2,0-0.4,0-0.7,0c-0.7,0-1.8-0.1-3.3-0.3s-3.3-0.8-5.5-1.7c-2.2-0.9-4.6-2.2-7.4-4c-2.8-1.8-5.7-4.3-8.8-7.4
	c-2.5-2.4-4.5-4.8-6.1-7c-1.6-2.2-2.9-4.3-3.9-6.2c-1-1.9-1.7-3.6-2.2-5.1s-0.8-2.9-1-4S0,12.2,0,11.6c0-0.6,0.1-1,0.1-1.1
	c0.1-0.5,0.2-1,0.5-1.5c0.2-0.5,0.5-0.9,0.9-1.2l7-7C9,0.3,9.5,0,10.2,0c0.5,0,0.9,0.1,1.2,0.4c0.4,0.3,0.7,0.6,0.9,1L18,12.1
	c0.3,0.6,0.4,1.2,0.3,1.9c-0.1,0.7-0.4,1.2-0.9,1.7l-2.6,2.6c-0.1,0.1-0.1,0.2-0.2,0.3s-0.1,0.3-0.1,0.4c0.1,0.7,0.5,1.6,1,2.5
	c0.4,0.8,1.1,1.9,2,3.1c0.9,1.2,2.1,2.6,3.8,4.2c1.6,1.6,3,2.9,4.2,3.8c1.2,0.9,2.3,1.6,3.1,2c0.8,0.4,1.5,0.7,1.9,0.8l0.7,0.1
	c0.1,0,0.2,0,0.3-0.1c0.2-0.1,0.3-0.1,0.3-0.2l3-3.1c0.6-0.6,1.4-0.8,2.2-0.8c0.6,0,1.1,0.1,1.4,0.3h0.1l10.2,6
	C49.4,38.2,49.8,38.7,50,39.5z"/> </symbol></svg>