<?xml version="1.0" encoding="utf-8"?>
<!-- Generator: Adobe Illustrator 18.0.0, SVG Export Plug-In . SVG Version: 6.00 Build 0)  -->
<!DOCTYPE svg PUBLIC "-//W3C//DTD SVG 1.1//EN" "http://www.w3.org/Graphics/SVG/1.1/DTD/svg11.dtd">
<svg version="1.1" id="Capa_1" xmlns="http://www.w3.org/2000/svg" xmlns:xlink="http://www.w3.org/1999/xlink" x="0px" y="0px"
	 viewBox="0 0 50 50" enable-background="new 0 0 50 50" xml:space="preserve">
<path fill="#010002" d="M24.9,3.3c3.2,0,5.8,2.6,5.8,5.8s-2.6,5.8-5.8,5.8s-5.8-2.6-5.8-5.8S21.7,3.3,24.9,3.3z M45.3,25.2L39.9,24
	c-1.9-0.4-3.7,0.5-4.7,2c-0.9-0.5-2-0.9-3-1.2v-3.2c0-2.4-2-4.5-4.4-4.5h-5.6c-2.5,0-4.4,2-4.4,4.5v3.3c-1.1,0.3-2.1,0.8-3,1.2
	c-1-1.5-2.8-2.4-4.7-2l-5.4,1.1c-2.4,0.5-3.9,2.9-3.4,5.3L2.6,37c0.5,2.4,2.9,3.9,5.3,3.4l1.7-0.4c0.9,1.3,2.1,2.4,3.6,3.4
	c3.2,2.1,7.4,3.2,11.8,3.2c6.8,0,12.7-2.7,15.4-6.7l1.8,0.4c2.4,0.5,4.8-1.1,5.3-3.4l1.4-6.5C49.3,28,47.7,25.7,45.3,25.2z M25,44.5
	c-4,0-7.8-1-10.6-2.9c-1-0.6-1.8-1.3-2.4-2.1l1.3-0.3c2.4-0.5,3.9-2.9,3.4-5.3l-1.2-5.9c0.7-0.4,1.5-0.7,2.3-1v1.1
	c0,2.4,2,4.4,4.4,4.4h5.6c2.4,0,4.4-2,4.4-4.4v-1.1c0.8,0.3,1.6,0.6,2.3,1L33.3,34c-0.5,2.4,1.1,4.8,3.4,5.3l1.3,0.3
	C35.6,42.5,30.6,44.5,25,44.5z M44.2,10.9c3.2,0,5.8,2.6,5.8,5.8s-2.6,5.8-5.8,5.8c-3.2,0-5.8-2.6-5.8-5.8S40.9,10.9,44.2,10.9z
	 M7,22.5c3.2-0.7,5.2-3.8,4.5-6.9c-0.7-3.2-3.8-5.2-6.9-4.5c-3.2,0.7-5.2,3.8-4.5,6.9C0.8,21.1,3.9,23.2,7,22.5z"/>
</svg>
