<?xml version="1.0" encoding="utf-8"?>
<!DOCTYPE svg PUBLIC "-//W3C//DTD SVG 1.1//EN" "http://www.w3.org/Graphics/SVG/1.1/DTD/svg11.dtd">
<svg version="1.1" id="logo" xmlns="http://www.w3.org/2000/svg" xmlns:xlink="http://www.w3.org/1999/xlink" x="0px" y="0px"
	 viewBox="26.1 18.6 17.9 12.8" enable-background="new 26.1 18.6 17.9 12.8" xml:space="preserve" width="120" height="60">
<path d="M38.8,23.5v-4.6h-2.8v1c-0.9-0.6-2.1-1-3.3-1c-3.4,0-6.1,2.7-6.1,6.1s2.7,6.1,6.1,6.1c1.2,0,2.3-0.4,3.3-1v1h2.8v-1.2
	c1.2,1.1,3.8,1,4.5,0.8c0,0,0-2.5,0-2.5c-2.7,0.3-3.9-1.1-4.4-2h4.4v-2.7H38.8z M32.8,28.3c-1.8,0-3.3-1.5-3.3-3.3s1.5-3.3,3.3-3.3
	c1.3,0,2.4,0.7,2.9,1.8h-4.3v2.7h4.4C35.4,27.4,34.2,28.3,32.8,28.3z"/>
</svg>
