<?xml version="1.0" encoding="utf-8"?>
<!-- Generator: Adobe Illustrator 18.0.0, SVG Export Plug-In . SVG Version: 6.00 Build 0)  -->
<!DOCTYPE svg PUBLIC "-//W3C//DTD SVG 1.1//EN" "http://www.w3.org/Graphics/SVG/1.1/DTD/svg11.dtd">
<svg version="1.1" id="Capa_1" xmlns="http://www.w3.org/2000/svg" xmlns:xlink="http://www.w3.org/1999/xlink" x="0px" y="0px"
	 viewBox="0 0 50 50" enable-background="new 0 0 50 50" xml:space="preserve">
<path fill="#010002" d="M25,0c2.1,0,3.9,1.7,3.9,3.9S27.1,7.7,25,7.7S21.1,6,21.1,3.9S22.9,0,25,0z M25,42.3c2.1,0,3.9,1.7,3.9,3.9
	c0,2.1-1.7,3.9-3.9,3.9s-3.9-1.7-3.9-3.9C21.1,44,22.9,42.3,25,42.3z M46.1,21.1c2.1,0,3.9,1.7,3.9,3.9s-1.7,3.9-3.9,3.9
	c-2.1,0-3.9-1.7-3.9-3.9S44,21.1,46.1,21.1z M3.9,21.1c2.1,0,3.9,1.7,3.9,3.9S6,28.9,3.9,28.9S0,27.1,0,25S1.7,21.1,3.9,21.1z
	 M36.4,36.4l-0.9-3.2L34.7,34L31,30.2c1.1-1.3,1.8-2.9,1.9-4.7h5.4v1.1l2.9-1.6l-2.9-1.6v1.1h-5.4c-0.1-1.8-0.9-3.3-2-4.6l3.9-3.9
	l0.8,0.8l0.9-3.2l-3.2,0.9l0.8,0.8l-3.9,3.9c-1.3-1.1-2.8-1.7-4.6-1.9v-5.5h1.1L25,8.9l-1.6,2.9h1.1v5.5c-1.7,0.1-3.3,0.8-4.6,1.9
	L16,15.3l0.8-0.8l-3.2-0.9l0.9,3.2l0.8-0.8l3.9,3.9c-1.1,1.2-1.8,2.8-2,4.6h-5.4v-1.1L8.9,25l2.9,1.6v-1.1h5.4
	c0.1,1.8,0.8,3.4,1.9,4.7L15.3,34l-0.8-0.8l-0.9,3.2l3.2-0.9L16,34.7l3.7-3.7c1.3,1.1,2.9,1.9,4.7,2v5.3h-1.1l1.6,2.9l1.6-2.9h-1.1
	V33c1.8-0.1,3.5-0.8,4.7-2l3.7,3.7l-0.8,0.8L36.4,36.4z M39.9,6.2c2.1,0,3.9,1.7,3.9,3.9s-1.7,3.9-3.9,3.9s-3.9-1.7-3.9-3.9
	S37.8,6.2,39.9,6.2z M10.1,36.1c2.1,0,3.9,1.7,3.9,3.9c0,2.1-1.7,3.9-3.9,3.9s-3.9-1.7-3.9-3.9C6.2,37.8,7.9,36.1,10.1,36.1z
	 M39.9,36.1c2.1,0,3.9,1.7,3.9,3.9c0,2.1-1.7,3.9-3.9,3.9s-3.9-1.7-3.9-3.9C36.1,37.8,37.8,36.1,39.9,36.1z M10.1,6.2
	c2.1,0,3.9,1.7,3.9,3.9s-1.7,3.9-3.9,3.9s-3.9-1.7-3.9-3.9S7.9,6.2,10.1,6.2z"/>
</svg>
