<?xml version="1.0" encoding="utf-8"?>
<!-- Generator: Adobe Illustrator 18.0.0, SVG Export Plug-In . SVG Version: 6.00 Build 0)  -->
<!DOCTYPE svg PUBLIC "-//W3C//DTD SVG 1.1//EN" "http://www.w3.org/Graphics/SVG/1.1/DTD/svg11.dtd">
<svg version="1.1" id="Capa_1" xmlns="http://www.w3.org/2000/svg" xmlns:xlink="http://www.w3.org/1999/xlink" x="0px" y="0px"
	 viewBox="0 0 50 50" enable-background="new 0 0 50 50" xml:space="preserve">
<path d="M48.8,42.9L37.9,32c-0.1-0.1-0.1-0.1-0.2-0.2c2.1-3.2,3.4-7.1,3.4-11.3C41.1,9.2,31.9,0,20.6,0S0,9.2,0,20.6
	c0,11.4,9.2,20.6,20.6,20.6c4.2,0,8.1-1.2,11.3-3.4c0.1,0.1,0.1,0.1,0.2,0.2l10.9,10.9c1.6,1.6,4.3,1.6,5.9,0
	C50.4,47.1,50.4,44.5,48.8,42.9z M20.6,34c-7.4,0-13.4-6-13.4-13.4c0-7.4,6-13.4,13.4-13.4c7.4,0,13.4,6,13.4,13.4S28,34,20.6,34z"
	/>
</svg>
