<?xml version="1.0" encoding="utf-8"?>
<!-- Generator: Adobe Illustrator 18.0.0, SVG Export Plug-In . SVG Version: 6.00 Build 0)  -->
<!DOCTYPE svg PUBLIC "-//W3C//DTD SVG 1.1//EN" "http://www.w3.org/Graphics/SVG/1.1/DTD/svg11.dtd">
<svg version="1.1" id="Capa_1" xmlns="http://www.w3.org/2000/svg" xmlns:xlink="http://www.w3.org/1999/xlink" x="0px" y="0px"
	 viewBox="0 0 50 50" enable-background="new 0 0 50 50" xml:space="preserve">
<path fill="#010002" d="M8.5,0c2.9,0,5.3,2.4,5.3,5.3s-2.4,5.3-5.3,5.3S3.2,8.2,3.2,5.3S5.6,0,8.5,0z M41.5,0c2.9,0,5.3,2.4,5.3,5.3
	s-2.4,5.3-5.3,5.3c-2.9,0-5.3-2.4-5.3-5.3S38.6,0,41.5,0z M41.5,28.2c2.9,0,5.3,2.4,5.3,5.3c0,2.9-2.4,5.3-5.3,5.3
	c-2.9,0-5.3-2.4-5.3-5.3C36.2,30.6,38.6,28.2,41.5,28.2z M8.5,28.2c2.9,0,5.3,2.4,5.3,5.3s-2.4,5.3-5.3,5.3s-5.3-2.4-5.3-5.3
	S5.6,28.2,8.5,28.2z M48.7,18c0-3.8-3.2-6.9-7.1-6.9c-4,0-7.2,3.1-7.2,6.9v2.5l-4.2,4.4H19.9l-4.3-4.6V18c0-3.8-3.2-6.9-7.2-6.9
	S1.3,14.2,1.3,18v3.8h12.8l3.5,3.7v8.3l-4.1,7.4c-1.3-1.2-3.1-2-5-2c-4,0-7.2,3.1-7.2,6.9V50h14.3v-3.8c0-1.1-0.3-2.1-0.8-3.1l5-8.8
	h10.5l4.9,8.7c-0.5,1-0.8,2-0.8,3.2V50h14.3v-3.8c0-3.8-3.2-6.9-7.1-6.9c-1.9,0-3.7,0.7-4.9,1.9L32,33.1v-7l3.9-4.2h12.7V18L48.7,18
	z"/>
</svg>
