<?xml version="1.0" encoding="utf-8"?>
<!-- Generator: Adobe Illustrator 18.0.0, SVG Export Plug-In . SVG Version: 6.00 Build 0)  -->
<!DOCTYPE svg PUBLIC "-//W3C//DTD SVG 1.1//EN" "http://www.w3.org/Graphics/SVG/1.1/DTD/svg11.dtd">
<svg version="1.1" id="Capa_1" xmlns="http://www.w3.org/2000/svg" xmlns:xlink="http://www.w3.org/1999/xlink" x="0px" y="0px"
	 viewBox="0 0 79.5 79.5" enable-background="new 0 0 79.5 79.5" xml:space="preserve">
<path fill="#010002" d="M19.8,23.1c0,5-4.1,9.1-9.1,9.1c-5,0-9.1-4.1-9.1-9.1c0-5,4.1-9.1,9.1-9.1C15.8,14,19.8,18.1,19.8,23.1z
	 M59.7,23.1c0,5,4.1,9.1,9.1,9.1c5,0,9.1-4.1,9.1-9.1c0-5-4.1-9.1-9.1-9.1C63.8,14,59.7,18.1,59.7,23.1z M34.7,54.4
	c-0.2-1.9,0.5-3.7,1.8-5c-7.7-1.5-10.9-5.2-13.6-8.6c-1.3-1.7-2.6-3.3-4.3-4.4c-0.1,0-0.1,0-0.2-0.1c-1.4-1.2-3.3-1.9-5.3-1.9H8.3
	C3.7,34.3,0,38,0,42.6v23h21.5V50.7c3.1,2.7,7.6,5.4,14.4,6.5C35.3,56.4,34.9,55.4,34.7,54.4z M71.3,34.3h-4.9c-2,0-3.8,0.8-5.3,1.9
	c-0.1,0-0.1,0-0.2,0.1c-1.7,1.1-3,2.7-4.3,4.4c-3,3.7-6.4,8-16,9c-2.2,0.2-3.7,2.2-3.5,4.4c0.2,2,1.9,3.5,3.9,3.5c0.1,0,0.3,0,0.4,0
	c8.1-0.9,13.1-3.8,16.6-6.8v14.8h21.5v-23C79.5,38,75.8,34.3,71.3,34.3z"/>
</svg>
