<?xml version="1.0" encoding="utf-8"?>
<!-- Generator: Adobe Illustrator 18.0.0, SVG Export Plug-In . SVG Version: 6.00 Build 0)  -->
<!DOCTYPE svg PUBLIC "-//W3C//DTD SVG 1.1//EN" "http://www.w3.org/Graphics/SVG/1.1/DTD/svg11.dtd">
<svg version="1.1" id="Capa_1" xmlns="http://www.w3.org/2000/svg" xmlns:xlink="http://www.w3.org/1999/xlink" x="0px" y="0px"
	 viewBox="0 0 435.6 435.6" enable-background="new 0 0 435.6 435.6" xml:space="preserve">
<path d="M161.6,257.4c12.3,11.8,26.2,15.9,28.2,24.3c1.8,7.7-4,107-6.8,153.9h88.6c-4-46.3-12.1-143.6-9.8-153.9
	c3.5-15.1,22-32.9,29.6-45.2c6-9.7,9.1-21.3,9.1-34.4l0-120.1c0-7.2-5.9-13-13-13c-7.2,0-13.2,5.8-13.2,13v63c0,2.5-1.9,4.5-4.4,4.5
	c-2.5,0-4.4-1.9-4.4-4.4V29.4c0,0,0.3-13.7-13-13.7c-13.3,0-13,13.7-13,13.7v107.3c0,0.4,0,1.9-1.1,3.1c-0.6,0.6-1.6,1.3-3.3,1.3
	c-1.8,0-2.8-0.7-3.4-1.3c-1.1-1.2-1.1-2.6-1.1-3V13c0-7.2-5.8-13-13-13c-7.2,0-13,5.8-13,13v124c0,0.5,0,2-1.1,3.2
	c-0.6,0.6-1.6,1.4-3.4,1.4c-1.7,0-2.8-0.7-3.3-1.3c-1.1-1.2-1.1-2.7-1.1-3.1l0-108.2c0-7.2-5.8-13-13-13c-7.2,0-13,5.8-13,13v140.1
	c0,0.5,0,2.4-1.3,3.8c-0.6,0.6-1.5,1.3-3.1,1.3c-1.6,0-2.6-0.7-3.1-1.3c-1.3-1.4-1.3-3.2-1.2-3.8v-44.1c0-7.3-5.9-13.2-13.2-13.2
	c-7.3,0-13.2,5.9-13.2,13.2v66.4C134.2,227.9,144,240.4,161.6,257.4z M211.5,164.6c5.5,0,10.7,1.8,15,5.1c4.3-3.3,9.4-5.1,15-5.1
	c13.4,0,24.3,10.9,24.3,24.3c0,17.4-13,26.1-23.4,33.1c-5.8,3.9-11.3,7.6-12.5,11.6c-0.4,1.5-1.8,2.5-3.3,2.6h-0.1
	c-1.5,0-2.9-1-3.4-2.4c-1.4-4.2-6.9-7.8-12.7-11.7c-10.3-6.9-23.2-15.6-23.2-33.1C187.2,175.5,198.1,164.6,211.5,164.6z
	 M281.4,435.6h53.5c4.7-35.9,13.5-101.9,15.8-107c2.6-5.8,13.2-6.8,23.7-13.6c15.1-9.8,23.9-17.5,29-44l9.2-47.9
	c1-5.3-2.4-10.4-7.7-11.4c-5.3-1-10.4,2.4-11.4,7.7l-6.1,31.8c-0.1,0.4-0.3,1.7-1.4,2.5c-0.5,0.4-1.3,0.7-2.4,0.5
	c-1.1-0.2-1.8-0.9-2.1-1.4c-0.7-1.2-0.5-2.5-0.4-2.9l19.5-101.1c1-5.2-2.4-10.2-7.6-11.2c-5.2-1-10.2,2.4-11.2,7.6l-15,78.1
	c-0.1,0.3-0.3,1.4-1.3,2.1c-0.5,0.4-1.3,0.7-2.6,0.5c-1.3-0.2-1.9-0.9-2.3-1.4c-0.6-1-0.4-2.1-0.4-2.4l17.2-89.5
	c1-5.2-2.4-10.2-7.6-11.2c-5.2-1-10.2,2.4-11.2,7.6l-17.2,89.3c0,0.3-0.3,1.3-1.2,2c-0.5,0.4-1.3,0.7-2.6,0.5
	c-1.3-0.2-1.9-0.9-2.2-1.4c-0.6-1-0.5-2.1-0.4-2.4l14.9-77.4c0,0,2.1-9.8-7.5-11.7s-11.3,8.1-11.3,8.1l-16.1,83.4
	c-0.4,1.8-2,3-3.8,2.6c-2-0.5-2.6-3.8-2.6-3.8c-4.8,15.6-9.7,25.7-17.4,34.9c-6.8,8.1-10.5,13.5-10.5,13.5c0,5.4,1,10.5,2.8,15.3
	c3.8,9.9,14.7,25.4,15.1,36.7c0.2,5.9-10.9,47.1-20.3,81C279.4,411.9,280.4,424.1,281.4,435.6z M308.7,251.1
	c1.9-9.7,11.2-16,20.9-14.2c4,0.8,7.5,2.8,10.1,5.8c3.5-1.8,7.5-2.4,11.5-1.6c9.7,1.9,16,11.2,14.2,20.9
	c-2.4,12.6-12.9,17.1-21.4,20.7c-4.7,2-9.2,3.9-10.8,6.7c-0.5,1-1.7,1.5-2.8,1.3c0,0,0,0-0.1,0c-1.1-0.2-1.9-1.2-2.1-2.3
	c-0.3-3-3.7-6.5-7.4-10.1C314.5,271.7,306.3,263.6,308.7,251.1z M84.9,328.6c2.3,5.1,11.1,71.1,15.8,107h66.7
	c-8.1-28.5-30.8-108.6-30.5-117c0.4-11.4,11.3-26.8,15.1-36.7c2.1-5.4,3-11.3,2.8-17.5c-13.4-12.9-23.4-24.2-27.8-45.3
	c-0.1,1.5-1.1,2.7-2.6,3c-1.8,0.4-3.5-0.8-3.8-2.6L104.4,136c0,0-1.7-9.9-11.3-8.1c-9.6,1.8-7.5,11.7-7.5,11.7l14.9,77.4
	c0.1,0.3,0.2,1.4-0.4,2.4c-0.3,0.5-1,1.2-2.2,1.4c-1.3,0.2-2.1-0.1-2.6-0.5c-1-0.7-1.2-1.7-1.2-2L76.8,129c-1-5.2-6-8.6-11.2-7.6
	c-5.2,1-8.6,6-7.6,11.2l17.2,89.5c0.1,0.3,0.3,1.4-0.4,2.4c-0.3,0.5-1,1.2-2.3,1.4c-1.3,0.2-2.1-0.1-2.6-0.5c-1-0.7-1.2-1.8-1.3-2.1
	l-15-78.1c-1-5.2-6-8.6-11.2-7.6c-5.2,1-8.6,6-7.6,11.2l19.5,101.1c0.1,0.4,0.3,1.7-0.4,2.9c-0.3,0.5-0.9,1.1-2.1,1.4
	c-1.1,0.2-2-0.1-2.4-0.5c-1.1-0.8-1.4-2.2-1.4-2.5L42,219.4c-1-5.3-6.1-8.7-11.4-7.7c-5.3,1-8.7,6.1-7.7,11.4l9.2,47.9
	c5.1,26.5,13.9,34.2,29,44C71.7,321.8,82.3,322.9,84.9,328.6z M84.3,241.1c4-0.8,8-0.2,11.5,1.6c2.6-3,6.1-5,10.1-5.8
	c9.7-1.9,19.1,4.5,20.9,14.2c2.4,12.6-5.7,20.7-12.3,27.2c-3.7,3.6-7.1,7-7.4,10.1c-0.1,1.1-0.9,2.1-2.1,2.3c0,0,0,0-0.1,0
	c-1.1,0.2-2.2-0.3-2.8-1.3c-1.6-2.8-6-4.7-10.8-6.7c-8.4-3.6-18.9-8-21.4-20.7C68.3,252.3,74.7,242.9,84.3,241.1z"/>
</svg>
