<?xml version="1.0" encoding="utf-8"?>
<!-- Generator: Adobe Illustrator 18.0.0, SVG Export Plug-In . SVG Version: 6.00 Build 0)  -->
<!DOCTYPE svg PUBLIC "-//W3C//DTD SVG 1.1//EN" "http://www.w3.org/Graphics/SVG/1.1/DTD/svg11.dtd">
<svg version="1.1" id="logo" xmlns="http://www.w3.org/2000/svg" xmlns:xlink="http://www.w3.org/1999/xlink" x="0px" y="0px"
	 viewBox="-10.9 -40.9 141.7 141.7" enable-background="new -10.9 -40.9 141.7 141.7" xml:space="preserve">
<path fill="#FF6B03" d="M91.4,17.8v-37.5H68.6v8.1c-7.3-4.9-17.1-8.1-26.9-8.1C14-19.7-8,2.3-8,30s22,49.7,49.7,49.7
	c9.8,0,18.7-3.3,26.9-8.1v8.1h22.8v-9.8c9.8,9,30.9,8.1,36.6,6.5V56.1c-22,2.4-31.8-9-35.8-16.3H128v-22
	C128,17.8,91.4,17.8,91.4,17.8z M42.5,56.9c-14.7,0-26.9-12.2-26.9-26.9S27.8,3.1,42.5,3.1c10.6,0,19.5,5.7,23.6,14.7h-35v22h35.8
	C63.7,49.5,53.9,56.9,42.5,56.9z"/>
</svg>
